PathFileType	4	(X/Y/Z)	./resultDataOpenSim/trcMotMarkerGrf/sub09/qtm-03-01.trc
DataRate	CameraRate	NumFrames	NumMarkers	Units	OrigDataRate	OrigDataStartFrame	OrigNumFrames
250.000000	250.000000	7	24	m	250.000000	239	477
Frame#	Time	L.Toe.Tip			R.Toe.Tip			L.Ankle.Lat			R.Ankle.Lat			L.Ankle.Med			R.Ankle.Med			L.Heel			R.Heel			L.Knee.Lat			R.Knee.Lat			L.Knee.Med			R.Knee.Med			L.Thigh.Upper			R.Thigh.Upper			L.ASIS			R.ASIS			V.Sacral			L.Acromium			R.Acromium			C7			L.Elbow			R.Elbow			L.Wrist.Lat			R.Wrist.Lat
		X1	Y1	Z1	X2	Y2	Z2	X3	Y3	Z3	X4	Y4	Z4	X5	Y5	Z5	X6	Y6	Z6	X7	Y7	Z7	X8	Y8	Z8	X9	Y9	Z9	X10	Y10	Z10	X11	Y11	Z11	X12	Y12	Z12	X13	Y13	Z13	X14	Y14	Z14	X15	Y15	Z15	X16	Y16	Z16	X17	Y17	Z17	X18	Y18	Z18	X19	Y19	Z19	X20	Y20	Z20	X21	Y21	Z21	X22	Y22	Z22	X23	Y23	Z23	X24	Y24	Z24

239	0.952	0.12750658	-0.011033463	-0.020552776	0.33847406	0.10022156	0.1158734	-0.02072717	0.030633705	-0.061508019	0.19622358	0.13706541	0.13778783	0.0025334386	0.05023181	0.033492382	0.22020284	0.16453327	0.043470179	-0.093418309	0.0021336722	-0.016746324	0.1276622	0.1194776	0.08535939	0.074396827	0.43547804	-0.11760446	0.36784377	0.55026701	0.16173861	0.075915183	0.43707547	0.0076344863	0.36476887	0.53406687	0.036250017	0.1031261	0.85838778	-0.17186569	0.1189784	0.87028642	0.20036896	0.19493658	0.94134647	-0.11390585	0.1910676	0.95464602	0.12578363	0.029901608	1.0045497	0.0069946316	0.21110077	1.3977169	-0.15189657	0.16873839	1.4078155	0.1748974	0.12392503	1.4544057	0.0054168602	0.083711027	1.0487437	-0.23473508	0.0041267305	1.083656	0.25410874	0.28916868	0.87151575	-0.21941422	0.11303611	0.83851298	0.30078751
240	0.956	0.12752694	-0.011057898	-0.020561476	0.35770198	0.099999072	0.11538823	-0.020875029	0.03090464	-0.061022925	0.21475493	0.13317489	0.13739697	0.0029551008	0.050512451	0.033831628	0.23778608	0.16148651	0.04317189	-0.093380321	0.0026028207	-0.0159261	0.14629953	0.11414626	0.085005721	0.074701806	0.43565788	-0.11757403	0.37547461	0.55162997	0.16189342	0.076499969	0.43717087	0.0078167807	0.37235149	0.5351266	0.036539608	0.10814189	0.85828471	-0.1714505	0.12479809	0.87006988	0.20058423	0.20026859	0.94089297	-0.1140354	0.19680268	0.95434552	0.12574516	0.035465707	1.0042225	0.0072661001	0.21690972	1.3974282	-0.15177331	0.174487	1.4073909	0.17504022	0.12981964	1.4539765	0.0055840935	0.090117101	1.0481142	-0.23490493	0.009275627	1.0835827	0.25406725	0.29682021	0.87241649	-0.21859736	0.11753946	0.8383466	0.30181454
241	0.96	0.12755154	-0.011083754	-0.020556525	0.37689105	0.099728514	0.11492199	-0.021013825	0.031183712	-0.0604764	0.23343903	0.12934718	0.13696344	0.0033646583	0.050789667	0.034236374	0.25545127	0.1585012	0.042884838	-0.093318797	0.0030457582	-0.015088902	0.16518286	0.10891609	0.084520435	0.075018717	0.43583664	-0.11754054	0.38285399	0.55274569	0.16203392	0.077214494	0.43729	0.0079490421	0.37978948	0.53604034	0.036903135	0.11311666	0.85812972	-0.1709915	0.13061406	0.86978949	0.20080476	0.20561289	0.94038112	-0.11415093	0.20254072	0.95396976	0.1257093	0.041053062	1.0038596	0.0075536298	0.22270814	1.3970766	-0.15164728	0.18027077	1.4069021	0.17520086	0.13564187	1.453558	0.0057783613	0.096348702	1.0474017	-0.2348782	0.014449931	1.0834367	0.25414684	0.30444997	0.87324973	-0.21778712	0.12209892	0.83810369	0.30281016
242	0.964	0.12756285	-0.011109293	-0.02053208	0.39605252	0.099424449	0.11449264	-0.02114558	0.031482852	-0.05990022	0.25211888	0.12562713	0.1364985	0.0037654731	0.051072241	0.034670813	0.27319945	0.1555826	0.042614673	-0.09325946	0.0034804399	-0.014237051	0.18433406	0.10379968	0.083906345	0.075389174	0.43601729	-0.11751644	0.38995758	0.55358638	0.16219181	0.078018424	0.43743259	0.0080155268	0.38711727	0.53680632	0.037300649	0.1180242	0.85790972	-0.17056006	0.13642069	0.86944807	0.20103168	0.21097242	0.93981283	-0.11424715	0.20827987	0.9535248	0.12567652	0.046669915	1.0034516	0.0078641199	0.22850681	1.3966612	-0.15151206	0.18607466	1.4063524	0.17537286	0.14139904	1.453131	0.0059404087	0.10258943	1.0466116	-0.23485418	0.019653056	1.0832333	0.2542738	0.31205355	0.87401551	-0.21698584	0.12671367	0.8377828	0.3037751
243	0.968	0.12753572	-0.011129817	-0.020494154	0.41519485	0.09914772	0.11413206	-0.021273301	0.031797161	-0.059313647	0.27059718	0.12207435	0.13604945	0.0041511816	0.051360536	0.03508963	0.29101661	0.15275039	0.042365938	-0.093196505	0.0039274331	-0.013368794	0.20363264	0.098836277	0.083241911	0.075866104	0.4361996	-0.11751411	0.39689662	0.55423082	0.1624289	0.0788766	0.43757818	0.0080352254	0.39435483	0.53740007	0.037711799	0.12286872	0.85762733	-0.17018841	0.1422093	0.8690471	0.20126572	0.21633576	0.93918788	-0.11433094	0.21403071	0.95301897	0.12565109	0.052306836	1.002986	0.0081758178	0.23430679	1.3961876	-0.15136765	0.19188233	1.4057486	0.17554538	0.1471535	1.4526248	0.0059807421	0.10899379	1.0457664	-0.23499951	0.024964545	1.0829664	0.25434795	0.3196308	0.87471509	-0.2161941	0.13137877	0.83738378	0.3047099
244	0.972	0.12748124	-0.011139821	-0.020469953	0.43430435	0.098962976	0.11387471	-0.021398521	0.032114061	-0.058721564	0.28884921	0.11869824	0.13565648	0.0045093914	0.051651756	0.035473591	0.30889131	0.15002121	0.042131913	-0.093116141	0.0044017807	-0.01249105	0.22287862	0.094082606	0.082657936	0.076484843	0.43637992	-0.11753818	0.40372885	0.55474619	0.16279008	0.079736136	0.43770728	0.0080768444	0.40150304	0.53779798	0.038143056	0.12765374	0.85728051	-0.16987305	0.14797431	0.86858568	0.20150625	0.22169723	0.93850321	-0.11441045	0.21980222	0.95245508	0.12563743	0.057950613	1.0024559	0.0084483581	0.24010289	1.3956631	-0.15121838	0.19768663	1.4050954	0.17571316	0.15295594	1.4520053	0.0059042847	0.11552955	1.0448945	-0.23526235	0.030451782	1.0826224	0.25429749	0.32718228	0.87534836	-0.21541056	0.13608668	0.83690685	0.30561496
245	0.976	0.1274544	-0.011137406	-0.02049481	0.45335741	0.098900738	0.11374083	-0.021519995	0.032431972	-0.058140133	0.30703338	0.11546469	0.13531214	0.0048487856	0.051944014	0.035836071	0.32682315	0.1473992	0.041895643	-0.093022233	0.0049042164	-0.011635106	0.2420006	0.089560136	0.08219787	0.0772246	0.43655434	-0.1175779	0.41035725	0.55509901	0.16322771	0.080478059	0.43779383	0.0082667215	0.4085692	0.53799706	0.038593719	0.13239109	0.85686318	-0.16959605	0.15371608	0.86805968	0.20175339	0.22706385	0.93775774	-0.11448575	0.22559488	0.95182896	0.1256373	0.063601753	1.0018574	0.0086517299	0.24589346	1.3950919	-0.15106617	0.20349244	1.404395	0.17588036	0.15880367	1.4513125	0.0058711572	0.12202943	1.0440039	-0.23544022	0.036089873	1.0821911	0.25415555	0.33470427	0.8759135	-0.21463368	0.14082728	0.83635089	0.30648698
